<?xml version="1.0" encoding="UTF-8" standalone="no"?>
<!-- Created with Inkscape (http://www.inkscape.org/) -->

<svg
   xmlns:ns0="http://www.iki.fi/pav/software/textext/"
   xmlns:dc="http://purl.org/dc/elements/1.1/"
   xmlns:cc="http://creativecommons.org/ns#"
   xmlns:rdf="http://www.w3.org/1999/02/22-rdf-syntax-ns#"
   xmlns:svg="http://www.w3.org/2000/svg"
   xmlns="http://www.w3.org/2000/svg"
   xmlns:sodipodi="http://sodipodi.sourceforge.net/DTD/sodipodi-0.dtd"
   xmlns:inkscape="http://www.inkscape.org/namespaces/inkscape"
   width="499.06668"
   height="253.06667"
   id="svg2"
   sodipodi:version="0.32"
   inkscape:version="0.92.4 (5da689c313, 2019-01-14)"
   sodipodi:docname="composition.svg"
   inkscape:output_extension="org.inkscape.output.svg.inkscape"
   version="1.1"
   inkscape:export-filename="/home/andrew/Documents/PLP/slides/by_week/figures/composition.png"
   inkscape:export-xdpi="151.73868"
   inkscape:export-ydpi="151.73868">
  <sodipodi:namedview
     id="base"
     pagecolor="#000000"
     bordercolor="#666666"
     borderopacity="1.0"
     gridtolerance="10000"
     guidetolerance="10"
     objecttolerance="10"
     inkscape:pageopacity="1"
     inkscape:pageshadow="2"
     inkscape:zoom="2.6076715"
     inkscape:cx="237.24263"
     inkscape:cy="117.48349"
     inkscape:document-units="px"
     inkscape:current-layer="svg2"
     showgrid="true"
     inkscape:window-width="1920"
     inkscape:window-height="1051"
     inkscape:window-x="0"
     inkscape:window-y="1080"
     inkscape:window-maximized="1"
     fit-margin-top="0"
     fit-margin-left="0"
     fit-margin-right="0"
     fit-margin-bottom="0">
    <inkscape:grid
       originy="-773.46667"
       originx="-71.466667"
       type="xygrid"
       empspacing="6"
       id="grid2388"
       spacingy="6"
       spacingx="6" />
  </sodipodi:namedview>
  <defs
     id="defs4">
    <marker
       inkscape:isstock="true"
       style="overflow:visible;"
       id="marker2921"
       refX="0.0"
       refY="0.0"
       orient="auto"
       inkscape:stockid="Arrow2Send">
      <path
         transform="scale(0.3) rotate(180) translate(-2.3,0)"
         d="M 8.7185878,4.0337352 L -2.2072895,0.016013256 L 8.7185884,-4.0017078 C 6.9730900,-1.6296469 6.9831476,1.6157441 8.7185878,4.0337352 z "
         style="fill-rule:evenodd;stroke-width:0.625;stroke-linejoin:round;stroke:#ff0000;stroke-opacity:1;fill:#ff0000;fill-opacity:1"
         id="path2919" />
    </marker>
    <marker
       inkscape:isstock="true"
       style="overflow:visible;"
       id="marker2875"
       refX="0.0"
       refY="0.0"
       orient="auto"
       inkscape:stockid="Arrow2Send">
      <path
         transform="scale(0.3) rotate(180) translate(-2.3,0)"
         d="M 8.7185878,4.0337352 L -2.2072895,0.016013256 L 8.7185884,-4.0017078 C 6.9730900,-1.6296469 6.9831476,1.6157441 8.7185878,4.0337352 z "
         style="fill-rule:evenodd;stroke-width:0.625;stroke-linejoin:round;stroke:#ff0000;stroke-opacity:1;fill:#ff0000;fill-opacity:1"
         id="path2873" />
    </marker>
    <marker
       inkscape:stockid="Arrow2Send"
       orient="auto"
       refY="0.0"
       refX="0.0"
       id="Arrow2Send"
       style="overflow:visible;"
       inkscape:isstock="true"
       inkscape:collect="always">
      <path
         id="path2600"
         style="fill-rule:evenodd;stroke-width:0.625;stroke-linejoin:round;stroke:#ff0000;stroke-opacity:1;fill:#ff0000;fill-opacity:1"
         d="M 8.7185878,4.0337352 L -2.2072895,0.016013256 L 8.7185884,-4.0017078 C 6.9730900,-1.6296469 6.9831476,1.6157441 8.7185878,4.0337352 z "
         transform="scale(0.3) rotate(180) translate(-2.3,0)" />
    </marker>
    <inkscape:perspective
       id="perspective6418"
       inkscape:persp3d-origin="300 : 400 : 1"
       inkscape:vp_z="700 : 600 : 1"
       inkscape:vp_y="0 : 1000 : 0"
       inkscape:vp_x="-50 : 600 : 1"
       sodipodi:type="inkscape:persp3d" />
    <marker
       style="overflow:visible"
       id="Arrow2Mend"
       refX="0"
       refY="0"
       orient="auto"
       inkscape:stockid="Arrow2Mend">
      <path
         transform="scale(-0.6)"
         d="M 8.7185878,4.0337352 -2.2072895,0.01601326 8.7185884,-4.0017078 c -1.7454984,2.3720609 -1.7354408,5.6174519 -6e-7,8.035443 z"
         style="font-size:12px;fill-rule:evenodd;stroke-width:0.625;stroke-linejoin:round"
         id="path5002"
         inkscape:connector-curvature="0" />
    </marker>
    <marker
       style="overflow:visible"
       id="Dot_s"
       refX="0"
       refY="0"
       orient="auto"
       inkscape:stockid="Dot_s">
      <path
         transform="matrix(0.2,0,0,0.2,1.48,0.2)"
         style="fill-rule:evenodd;stroke:#000000;stroke-width:1.00000003pt;marker-start:none;marker-end:none"
         d="m -2.5,-1 c 0,2.76 -2.24,5 -5,5 -2.76,0 -5,-2.24 -5,-5 0,-2.76 2.24,-5 5,-5 2.76,0 5,2.24 5,5 z"
         id="path5043"
         inkscape:connector-curvature="0" />
    </marker>
    <inkscape:perspective
       sodipodi:type="inkscape:persp3d"
       inkscape:vp_x="-50 : 600 : 1"
       inkscape:vp_y="0 : 1000 : 0"
       inkscape:vp_z="700 : 600 : 1"
       inkscape:persp3d-origin="300 : 400 : 1"
       id="perspective4833" />
    <inkscape:perspective
       id="perspective4557"
       inkscape:persp3d-origin="300 : 400 : 1"
       inkscape:vp_x="-50 : 600 : 1"
       inkscape:vp_y="0 : 1000 : 0"
       inkscape:vp_z="700 : 600 : 1"
       sodipodi:type="inkscape:persp3d" />
    <inkscape:perspective
       id="perspective4273"
       inkscape:persp3d-origin="300 : 400 : 1"
       inkscape:vp_x="-50 : 600 : 1"
       inkscape:vp_y="0 : 1000 : 0"
       inkscape:vp_z="700 : 600 : 1"
       sodipodi:type="inkscape:persp3d" />
    <inkscape:perspective
       id="perspective3907"
       inkscape:persp3d-origin="300 : 400 : 1"
       inkscape:vp_x="-50 : 600 : 1"
       inkscape:vp_y="0 : 1000 : 0"
       inkscape:vp_z="700 : 600 : 1"
       sodipodi:type="inkscape:persp3d" />
    <inkscape:perspective
       id="perspective3715"
       inkscape:persp3d-origin="300 : 400 : 1"
       inkscape:vp_x="-50 : 600 : 1"
       inkscape:vp_y="0 : 1000 : 0"
       inkscape:vp_z="700 : 600 : 1"
       sodipodi:type="inkscape:persp3d" />
    <inkscape:perspective
       id="perspective3562"
       inkscape:persp3d-origin="300 : 400 : 1"
       inkscape:vp_x="-50 : 600 : 1"
       inkscape:vp_y="0 : 1000 : 0"
       inkscape:vp_z="700 : 600 : 1"
       sodipodi:type="inkscape:persp3d" />
    <inkscape:perspective
       id="perspective3408"
       inkscape:persp3d-origin="300 : 400 : 1"
       inkscape:vp_x="-50 : 600 : 1"
       inkscape:vp_y="0 : 1000 : 0"
       inkscape:vp_z="700 : 600 : 1"
       sodipodi:type="inkscape:persp3d" />
    <inkscape:perspective
       id="perspective3328"
       inkscape:persp3d-origin="300 : 400 : 1"
       inkscape:vp_x="-50 : 600 : 1"
       inkscape:vp_y="0 : 1000 : 0"
       inkscape:vp_z="700 : 600 : 1"
       sodipodi:type="inkscape:persp3d" />
    <inkscape:perspective
       id="perspective3234"
       inkscape:persp3d-origin="300 : 400 : 1"
       inkscape:vp_x="-50 : 600 : 1"
       inkscape:vp_y="0 : 1000 : 0"
       inkscape:vp_z="700 : 600 : 1"
       sodipodi:type="inkscape:persp3d" />
    <inkscape:perspective
       id="perspective3190"
       inkscape:persp3d-origin="300 : 400 : 1"
       inkscape:vp_x="-50 : 600 : 1"
       inkscape:vp_y="0 : 1000 : 0"
       inkscape:vp_z="700 : 600 : 1"
       sodipodi:type="inkscape:persp3d" />
    <inkscape:perspective
       id="perspective10"
       inkscape:persp3d-origin="300 : 400 : 1"
       inkscape:vp_x="-50 : 600 : 1"
       inkscape:vp_y="0 : 1000 : 0"
       inkscape:vp_z="700 : 600 : 1"
       sodipodi:type="inkscape:persp3d" />
    <marker
       style="overflow:visible"
       id="Dot_sI"
       refX="0"
       refY="0"
       orient="auto"
       inkscape:stockid="Dot_sI">
      <path
         transform="matrix(0.2,0,0,0.2,1.48,0.2)"
         style="fill:#ff0000;fill-rule:evenodd;stroke:#ff0000;stroke-width:1.00000003pt;marker-start:none;marker-end:none"
         d="m -2.5,-1 c 0,2.76 -2.24,5 -5,5 -2.76,0 -5,-2.24 -5,-5 0,-2.76 2.24,-5 5,-5 2.76,0 5,2.24 5,5 z"
         id="path6293"
         inkscape:connector-curvature="0" />
    </marker>
    <marker
       style="overflow:visible"
       id="Arrow2Mendo"
       refX="0"
       refY="0"
       orient="auto"
       inkscape:stockid="Arrow2Mendo">
      <path
         transform="scale(-0.6)"
         d="M 8.7185878,4.0337352 -2.2072895,0.01601326 8.7185884,-4.0017078 c -1.7454984,2.3720609 -1.7354408,5.6174519 -6e-7,8.035443 z"
         style="font-size:12px;fill:#ff0000;fill-rule:evenodd;stroke:#ff0000;stroke-width:0.625;stroke-linejoin:round"
         id="path6296"
         inkscape:connector-curvature="0" />
    </marker>
  </defs>
  <metadata
     id="metadata7">
    <rdf:RDF>
      <cc:Work
         rdf:about="">
        <dc:format>image/svg+xml</dc:format>
        <dc:type
           rdf:resource="http://purl.org/dc/dcmitype/StillImage" />
        <dc:title />
        <dc:date />
        <dc:creator>
          <cc:Agent>
            <dc:title />
          </cc:Agent>
        </dc:creator>
        <dc:rights>
          <cc:Agent>
            <dc:title />
          </cc:Agent>
        </dc:rights>
        <dc:publisher>
          <cc:Agent>
            <dc:title />
          </cc:Agent>
        </dc:publisher>
        <dc:identifier />
        <dc:source />
        <dc:relation />
        <dc:language />
        <dc:subject>
          <rdf:Bag />
        </dc:subject>
        <dc:coverage />
        <dc:description />
        <dc:contributor>
          <cc:Agent>
            <dc:title />
          </cc:Agent>
        </dc:contributor>
        <cc:license
           rdf:resource="" />
      </cc:Work>
    </rdf:RDF>
  </metadata>
  <g
     inkscape:groupmode="layer"
     id="layer1"
     inkscape:label="Layer 1"
     transform="translate(-71.466667,-25.828849)">
    <path
       d="m 102,116.36218 c -9.977899,24.08878 -7.05544,54.96666 0,72 7.05544,17.03334 23.95561,31.01105 36,36 12.04439,4.98895 23.95561,4.98895 36,0 12.04439,-4.98895 36,-20.72649 36,-36 0,-15.27351 -31.01105,-23.95561 -36,-36 -4.98895,-12.04439 -4.98895,-23.95561 0,-36 4.98895,-12.04439 36,-20.726484 36,-35.999994 0,-15.2735 -13.08974,-36 -36,-36 -22.91026,0 -62.0221,47.91122 -72,71.999994 z"
       sodipodi:nodetypes="czzzzzzzzz"
       id="path2390"
       style="fill:none;fill-rule:evenodd;stroke:#ffffff;stroke-width:2;stroke-linecap:butt;stroke-linejoin:miter;stroke-miterlimit:4;stroke-dasharray:none;stroke-opacity:1"
       inkscape:connector-curvature="0" />
    <path
       d="m 360,62.362183 c 24,12 24.6216,108.966657 17.56616,125.999997 -7.05544,17.03334 -22.96325,36 -36,36 -12.04439,4.98895 -26.36807,4.04123 -36,0 -9.63193,-4.04123 -23.56616,-8.72649 -23.56616,-24 0,-15.27351 18.39898,-32.73324 12,-48 -6.39898,-15.26676 -36,-10.96325 -36,-24 -4.98895,-12.04439 -7.19009,-33.541044 0,-47.999997 7.19009,-14.458954 48,-30 66,-30 18,0 12,0 36,12 z"
       sodipodi:nodetypes="czzzzzzzzz"
       id="path3162"
       style="fill:none;fill-rule:evenodd;stroke:#ffffff;stroke-width:2;stroke-linecap:butt;stroke-linejoin:miter;stroke-miterlimit:4;stroke-dasharray:none;stroke-opacity:1"
       inkscape:connector-curvature="0" />
    <path
       d="m 432,116.36218 c -9.9779,24.08878 -7.05544,54.96666 0,72 7.05544,17.03334 23.95561,31.01105 36,36 12.04439,4.98895 23.95561,4.98895 36,0 12.04439,-4.98895 30,-12 36,-24 6,-12 10.98895,-47.95561 6,-60 -4.98895,-12.04439 -22.98895,-17.95561 -18,-30 4.98895,-12.044387 12,-14.726487 12,-29.999996 0,-15.2735 -13.08974,-36 -36,-36 -22.91026,0 -62.0221,47.91122 -72,71.999996 z"
       sodipodi:nodetypes="czzzzzzzzz"
       id="path3164"
       style="fill:none;fill-rule:evenodd;stroke:#ffffff;stroke-width:2;stroke-linecap:butt;stroke-linejoin:miter;stroke-miterlimit:4;stroke-dasharray:none;stroke-opacity:1"
       inkscape:connector-curvature="0" />
  </g>
  <circle
     id="path4964"
     style="fill:#ff0000;fill-opacity:1;stroke:#ffffff;stroke-width:1;stroke-miterlimit:4;stroke-dasharray:none;stroke-dashoffset:0;stroke-opacity:1"
     cx="63.533333"
     cy="144.53334"
     r="3" />
  <circle
     id="path4966"
     style="fill:#ff0000;fill-opacity:1;stroke:#ffffff;stroke-width:1;stroke-miterlimit:4;stroke-dasharray:none;stroke-dashoffset:0;stroke-opacity:1"
     cx="257.43567"
     cy="135.36862"
     r="3" />
  <circle
     id="path4968"
     style="fill:#ff0000;fill-opacity:1;stroke:#ffffff;stroke-width:1;stroke-miterlimit:4;stroke-dasharray:none;stroke-dashoffset:0;stroke-opacity:1"
     cx="411.53333"
     cy="144.53334"
     r="3" />
  <path
     id="path4970"
     d="m 72.533333,138.53333 c 0,0 56.865417,-10.92113 83.999997,-12 27.13458,-1.07887 90,6.00001 90,6.00001"
     style="fill:none;fill-rule:evenodd;stroke:#ff0000;stroke-width:2.66666675;stroke-linecap:butt;stroke-linejoin:miter;stroke-miterlimit:4;stroke-dasharray:none;stroke-opacity:1;marker-start:url(#Dot_sI);marker-end:url(#marker2875)"
     sodipodi:nodetypes="czc"
     inkscape:connector-curvature="0" />
  <path
     id="path6562"
     d="m 270.53333,132.53334 c 0,0 36,-6.00001 60,-6.00001 24,0 72,12.00001 72,12.00001"
     style="fill:none;fill-rule:evenodd;stroke:#ff0000;stroke-width:2.66666675;stroke-linecap:butt;stroke-linejoin:miter;stroke-miterlimit:4;stroke-dasharray:none;stroke-opacity:1;marker-start:url(#Dot_sI);marker-end:url(#Arrow2Send)"
     sodipodi:nodetypes="czc"
     inkscape:connector-curvature="0" />
  <path
     id="path6564"
     d="m 72.533333,150.53333 c 0,0 125.850267,67.32141 179.999997,66 54.14973,-1.3214 150,-65.99999 150,-65.99999"
     style="fill:none;fill-rule:evenodd;stroke:#ff0000;stroke-width:2.66666675;stroke-linecap:butt;stroke-linejoin:miter;stroke-miterlimit:4;stroke-dasharray:none;stroke-opacity:1;marker-start:url(#Dot_sI);marker-end:url(#marker2921)"
     sodipodi:nodetypes="czc"
     inkscape:connector-curvature="0" />
  <rect
     style="color:#000000;clip-rule:nonzero;display:inline;overflow:visible;visibility:visible;opacity:1;isolation:auto;mix-blend-mode:normal;color-interpolation:sRGB;color-interpolation-filters:linearRGB;solid-color:#000000;solid-opacity:1;fill:none;fill-opacity:1;fill-rule:nonzero;stroke:#808080;stroke-width:1.06666672;stroke-linecap:round;stroke-linejoin:round;stroke-miterlimit:4;stroke-dasharray:none;stroke-dashoffset:0;stroke-opacity:1;marker-start:none;color-rendering:auto;image-rendering:auto;shape-rendering:auto;text-rendering:auto;enable-background:accumulate"
     id="rect4138-8-6"
     width="498"
     height="252"
     x="0.53333336"
     y="0.53333336"
     ry="6.4000249" />
  <g
     id="g1597"
     style="fill:#ffffff"
     ns0:jacobian_sqrt="2.0"
     inkscapeversion="0.92.3"
     ns0:alignment="middle center"
     ns0:scale="1.5"
     ns0:preamble="/home/andrew/.config/inkscape/extensions/textext/default_packages.tex"
     ns0:text="$g \\circ f$"
     ns0:pdfconverter="pdf2svg"
     ns0:texconverter="pdflatex"
     ns0:version="0.11.1"
     transform="matrix(2.000000,0.000000,0.000000,2.000000,-67.275587,-36.001875)">
    <g
       style="fill:#ffffff"
       id="g1595">
      <g
         id="g1585"
         style="fill-opacity:1;fill:#ffffff">
        <path
           id="path1583"
           transform="translate(148.712,134.765)"
           d="M 4.6875 -3.765625 C 4.703125 -3.8125 4.71875 -3.875 4.71875 -3.9375 C 4.71875 -4.109375 4.609375 -4.203125 4.4375 -4.203125 C 4.34375 -4.203125 4.0625 -4.140625 4.03125 -3.78125 C 3.84375 -4.140625 3.5 -4.40625 3.09375 -4.40625 C 1.96875 -4.40625 0.734375 -3.015625 0.734375 -1.578125 C 0.734375 -0.59375 1.328125 0 2.046875 0 C 2.640625 0 3.109375 -0.46875 3.203125 -0.578125 L 3.21875 -0.5625 C 3.015625 0.3125 2.890625 0.734375 2.890625 0.75 C 2.84375 0.84375 2.515625 1.828125 1.453125 1.828125 C 1.265625 1.828125 0.9375 1.8125 0.65625 1.71875 C 0.953125 1.640625 1.0625 1.375 1.0625 1.203125 C 1.0625 1.046875 0.953125 0.859375 0.6875 0.859375 C 0.46875 0.859375 0.15625 1.03125 0.15625 1.4375 C 0.15625 1.84375 0.515625 2.046875 1.46875 2.046875 C 2.71875 2.046875 3.4375 1.265625 3.59375 0.671875 Z M 3.40625 -1.28125 C 3.34375 -1.015625 3.109375 -0.765625 2.890625 -0.578125 C 2.6875 -0.40625 2.375 -0.21875 2.078125 -0.21875 C 1.578125 -0.21875 1.4375 -0.734375 1.4375 -1.140625 C 1.4375 -1.609375 1.71875 -2.796875 2 -3.296875 C 2.265625 -3.78125 2.6875 -4.1875 3.109375 -4.1875 C 3.765625 -4.1875 3.90625 -3.375 3.90625 -3.328125 C 3.90625 -3.28125 3.890625 -3.21875 3.875 -3.1875 Z M 3.40625 -1.28125 "
           style="stroke:none;stroke-width:0;fill:#ffffff" />
      </g>
      <g
         id="g1589"
         style="fill-opacity:1;fill:#ffffff">
        <path
           id="path1587"
           transform="translate(156.035,134.765)"
           d="M 4.421875 -2.5 C 4.421875 -3.5625 3.53125 -4.421875 2.5 -4.421875 C 1.421875 -4.421875 0.546875 -3.53125 0.546875 -2.5 C 0.546875 -1.4375 1.421875 -0.5625 2.5 -0.5625 C 3.53125 -0.5625 4.421875 -1.421875 4.421875 -2.5 Z M 2.5 -0.953125 C 1.625 -0.953125 0.953125 -1.65625 0.953125 -2.5 C 0.953125 -3.328125 1.640625 -4.03125 2.5 -4.03125 C 3.3125 -4.03125 4.03125 -3.34375 4.03125 -2.5 C 4.03125 -1.640625 3.3125 -0.953125 2.5 -0.953125 Z M 2.5 -0.953125 "
           style="stroke:none;stroke-width:0;fill:#ffffff" />
      </g>
      <g
         id="g1593"
         style="fill-opacity:1;fill:#ffffff">
        <path
           id="path1591"
           transform="translate(163.231,134.765)"
           d="M 3.65625 -3.984375 L 4.515625 -3.984375 C 4.71875 -3.984375 4.8125 -3.984375 4.8125 -4.1875 C 4.8125 -4.296875 4.71875 -4.296875 4.546875 -4.296875 L 3.71875 -4.296875 L 3.921875 -5.4375 C 3.96875 -5.640625 4.109375 -6.34375 4.171875 -6.46875 C 4.25 -6.65625 4.421875 -6.8125 4.640625 -6.8125 C 4.671875 -6.8125 4.9375 -6.8125 5.125 -6.625 C 4.6875 -6.59375 4.578125 -6.234375 4.578125 -6.09375 C 4.578125 -5.859375 4.765625 -5.734375 4.953125 -5.734375 C 5.21875 -5.734375 5.5 -5.96875 5.5 -6.34375 C 5.5 -6.796875 5.046875 -7.03125 4.640625 -7.03125 C 4.296875 -7.03125 3.671875 -6.84375 3.375 -5.859375 C 3.3125 -5.65625 3.28125 -5.546875 3.046875 -4.296875 L 2.359375 -4.296875 C 2.15625 -4.296875 2.046875 -4.296875 2.046875 -4.109375 C 2.046875 -3.984375 2.140625 -3.984375 2.328125 -3.984375 L 2.984375 -3.984375 L 2.25 -0.046875 C 2.0625 0.921875 1.890625 1.828125 1.375 1.828125 C 1.328125 1.828125 1.09375 1.828125 0.890625 1.640625 C 1.359375 1.609375 1.453125 1.25 1.453125 1.109375 C 1.453125 0.875 1.265625 0.75 1.078125 0.75 C 0.8125 0.75 0.53125 0.984375 0.53125 1.359375 C 0.53125 1.796875 0.96875 2.046875 1.375 2.046875 C 1.921875 2.046875 2.328125 1.453125 2.5 1.078125 C 2.828125 0.453125 3.046875 -0.75 3.0625 -0.828125 Z M 3.65625 -3.984375 "
           style="stroke:none;stroke-width:0;fill:#ffffff" />
      </g>
    </g>
  </g>
  <g
     id="g1702"
     style="fill:#ffffff"
     ns0:jacobian_sqrt="2.0"
     inkscapeversion="0.92.3"
     ns0:alignment="middle center"
     ns0:scale="1.5"
     ns0:preamble="/home/andrew/.config/inkscape/extensions/textext/default_packages.tex"
     ns0:text="$a$"
     ns0:pdfconverter="pdf2svg"
     ns0:texconverter="pdflatex"
     ns0:version="0.11.1"
     transform="matrix(2.000000,0.000000,0.000000,2.000000,-242.703170,-134.710208)">
    <g
       style="fill:#ffffff"
       id="surface1">
      <g
         id="g1699"
         style="fill-opacity:1;fill:#ffffff">
        <path
           id="path1697"
           transform="translate(148.712,134.765)"
           d="M 3.71875 -3.765625 C 3.53125 -4.140625 3.25 -4.40625 2.796875 -4.40625 C 1.640625 -4.40625 0.40625 -2.9375 0.40625 -1.484375 C 0.40625 -0.546875 0.953125 0.109375 1.71875 0.109375 C 1.921875 0.109375 2.421875 0.0625 3.015625 -0.640625 C 3.09375 -0.21875 3.453125 0.109375 3.921875 0.109375 C 4.28125 0.109375 4.5 -0.125 4.671875 -0.4375 C 4.828125 -0.796875 4.96875 -1.40625 4.96875 -1.421875 C 4.96875 -1.53125 4.875 -1.53125 4.84375 -1.53125 C 4.75 -1.53125 4.734375 -1.484375 4.703125 -1.34375 C 4.53125 -0.703125 4.359375 -0.109375 3.953125 -0.109375 C 3.671875 -0.109375 3.65625 -0.375 3.65625 -0.5625 C 3.65625 -0.78125 3.671875 -0.875 3.78125 -1.3125 C 3.890625 -1.71875 3.90625 -1.828125 4 -2.203125 L 4.359375 -3.59375 C 4.421875 -3.875 4.421875 -3.890625 4.421875 -3.9375 C 4.421875 -4.109375 4.3125 -4.203125 4.140625 -4.203125 C 3.890625 -4.203125 3.75 -3.984375 3.71875 -3.765625 Z M 3.078125 -1.1875 C 3.015625 -1 3.015625 -0.984375 2.875 -0.8125 C 2.4375 -0.265625 2.03125 -0.109375 1.75 -0.109375 C 1.25 -0.109375 1.109375 -0.65625 1.109375 -1.046875 C 1.109375 -1.546875 1.421875 -2.765625 1.65625 -3.234375 C 1.96875 -3.8125 2.40625 -4.1875 2.8125 -4.1875 C 3.453125 -4.1875 3.59375 -3.375 3.59375 -3.3125 C 3.59375 -3.25 3.578125 -3.1875 3.5625 -3.140625 Z M 3.078125 -1.1875 "
           style="stroke:none;stroke-width:0;fill:#ffffff" />
      </g>
    </g>
  </g>
  <g
     id="g1804"
     style="fill:#ffffff"
     ns0:jacobian_sqrt="2.0"
     inkscapeversion="0.92.3"
     ns0:alignment="middle center"
     ns0:scale="1.5"
     ns0:preamble="/home/andrew/.config/inkscape/extensions/textext/default_packages.tex"
     ns0:text="$f$"
     ns0:pdfconverter="pdf2svg"
     ns0:texconverter="pdflatex"
     ns0:version="0.11.1"
     transform="matrix(2.000000,0.000000,0.000000,2.000000,-147.359422,-152.022707)">
    <g
       style="fill:#ffffff"
       id="g1802">
      <g
         id="g1800"
         style="fill-opacity:1;fill:#ffffff">
        <path
           id="path1798"
           transform="translate(148.712,134.765)"
           d="M 3.65625 -3.984375 L 4.515625 -3.984375 C 4.71875 -3.984375 4.8125 -3.984375 4.8125 -4.1875 C 4.8125 -4.296875 4.71875 -4.296875 4.546875 -4.296875 L 3.71875 -4.296875 L 3.921875 -5.4375 C 3.96875 -5.640625 4.109375 -6.34375 4.171875 -6.46875 C 4.25 -6.65625 4.421875 -6.8125 4.640625 -6.8125 C 4.671875 -6.8125 4.9375 -6.8125 5.125 -6.625 C 4.6875 -6.59375 4.578125 -6.234375 4.578125 -6.09375 C 4.578125 -5.859375 4.765625 -5.734375 4.953125 -5.734375 C 5.21875 -5.734375 5.5 -5.96875 5.5 -6.34375 C 5.5 -6.796875 5.046875 -7.03125 4.640625 -7.03125 C 4.296875 -7.03125 3.671875 -6.84375 3.375 -5.859375 C 3.3125 -5.65625 3.28125 -5.546875 3.046875 -4.296875 L 2.359375 -4.296875 C 2.15625 -4.296875 2.046875 -4.296875 2.046875 -4.109375 C 2.046875 -3.984375 2.140625 -3.984375 2.328125 -3.984375 L 2.984375 -3.984375 L 2.25 -0.046875 C 2.0625 0.921875 1.890625 1.828125 1.375 1.828125 C 1.328125 1.828125 1.09375 1.828125 0.890625 1.640625 C 1.359375 1.609375 1.453125 1.25 1.453125 1.109375 C 1.453125 0.875 1.265625 0.75 1.078125 0.75 C 0.8125 0.75 0.53125 0.984375 0.53125 1.359375 C 0.53125 1.796875 0.96875 2.046875 1.375 2.046875 C 1.921875 2.046875 2.328125 1.453125 2.5 1.078125 C 2.828125 0.453125 3.046875 -0.75 3.0625 -0.828125 Z M 3.65625 -3.984375 "
           style="stroke:none;stroke-width:0;fill:#ffffff" />
      </g>
    </g>
  </g>
  <g
     id="g1912"
     style="fill:#ffffff"
     ns0:jacobian_sqrt="2.0"
     inkscapeversion="0.92.3"
     ns0:alignment="middle center"
     ns0:scale="1.5"
     ns0:preamble="/home/andrew/.config/inkscape/extensions/textext/default_packages.tex"
     ns0:text="$f(a)$"
     ns0:pdfconverter="pdf2svg"
     ns0:texconverter="pdflatex"
     ns0:version="0.11.1"
     transform="matrix(2.000000,0.000000,0.000000,2.000000,-64.554572,-148.689376)">
    <g
       style="fill:#ffffff"
       id="g1910">
      <g
         id="g1896"
         style="fill-opacity:1;fill:#ffffff">
        <path
           id="path1894"
           transform="translate(148.712,134.765)"
           d="M 3.65625 -3.984375 L 4.515625 -3.984375 C 4.71875 -3.984375 4.8125 -3.984375 4.8125 -4.1875 C 4.8125 -4.296875 4.71875 -4.296875 4.546875 -4.296875 L 3.71875 -4.296875 L 3.921875 -5.4375 C 3.96875 -5.640625 4.109375 -6.34375 4.171875 -6.46875 C 4.25 -6.65625 4.421875 -6.8125 4.640625 -6.8125 C 4.671875 -6.8125 4.9375 -6.8125 5.125 -6.625 C 4.6875 -6.59375 4.578125 -6.234375 4.578125 -6.09375 C 4.578125 -5.859375 4.765625 -5.734375 4.953125 -5.734375 C 5.21875 -5.734375 5.5 -5.96875 5.5 -6.34375 C 5.5 -6.796875 5.046875 -7.03125 4.640625 -7.03125 C 4.296875 -7.03125 3.671875 -6.84375 3.375 -5.859375 C 3.3125 -5.65625 3.28125 -5.546875 3.046875 -4.296875 L 2.359375 -4.296875 C 2.15625 -4.296875 2.046875 -4.296875 2.046875 -4.109375 C 2.046875 -3.984375 2.140625 -3.984375 2.328125 -3.984375 L 2.984375 -3.984375 L 2.25 -0.046875 C 2.0625 0.921875 1.890625 1.828125 1.375 1.828125 C 1.328125 1.828125 1.09375 1.828125 0.890625 1.640625 C 1.359375 1.609375 1.453125 1.25 1.453125 1.109375 C 1.453125 0.875 1.265625 0.75 1.078125 0.75 C 0.8125 0.75 0.53125 0.984375 0.53125 1.359375 C 0.53125 1.796875 0.96875 2.046875 1.375 2.046875 C 1.921875 2.046875 2.328125 1.453125 2.5 1.078125 C 2.828125 0.453125 3.046875 -0.75 3.0625 -0.828125 Z M 3.65625 -3.984375 "
           style="stroke:none;stroke-width:0;fill:#ffffff" />
      </g>
      <g
         id="g1900"
         style="fill-opacity:1;fill:#ffffff">
        <path
           id="path1898"
           transform="translate(154.662,134.765)"
           d="M 3.296875 2.390625 C 3.296875 2.359375 3.296875 2.34375 3.125 2.171875 C 1.890625 0.921875 1.5625 -0.96875 1.5625 -2.5 C 1.5625 -4.234375 1.9375 -5.96875 3.171875 -7.203125 C 3.296875 -7.328125 3.296875 -7.34375 3.296875 -7.375 C 3.296875 -7.453125 3.265625 -7.484375 3.203125 -7.484375 C 3.09375 -7.484375 2.203125 -6.796875 1.609375 -5.53125 C 1.109375 -4.4375 0.984375 -3.328125 0.984375 -2.5 C 0.984375 -1.71875 1.09375 -0.515625 1.640625 0.625 C 2.25 1.84375 3.09375 2.5 3.203125 2.5 C 3.265625 2.5 3.296875 2.46875 3.296875 2.390625 Z M 3.296875 2.390625 "
           style="stroke:none;stroke-width:0;fill:#ffffff" />
      </g>
      <g
         id="g1904"
         style="fill-opacity:1;fill:#ffffff">
        <path
           id="path1902"
           transform="translate(158.537,134.765)"
           d="M 3.71875 -3.765625 C 3.53125 -4.140625 3.25 -4.40625 2.796875 -4.40625 C 1.640625 -4.40625 0.40625 -2.9375 0.40625 -1.484375 C 0.40625 -0.546875 0.953125 0.109375 1.71875 0.109375 C 1.921875 0.109375 2.421875 0.0625 3.015625 -0.640625 C 3.09375 -0.21875 3.453125 0.109375 3.921875 0.109375 C 4.28125 0.109375 4.5 -0.125 4.671875 -0.4375 C 4.828125 -0.796875 4.96875 -1.40625 4.96875 -1.421875 C 4.96875 -1.53125 4.875 -1.53125 4.84375 -1.53125 C 4.75 -1.53125 4.734375 -1.484375 4.703125 -1.34375 C 4.53125 -0.703125 4.359375 -0.109375 3.953125 -0.109375 C 3.671875 -0.109375 3.65625 -0.375 3.65625 -0.5625 C 3.65625 -0.78125 3.671875 -0.875 3.78125 -1.3125 C 3.890625 -1.71875 3.90625 -1.828125 4 -2.203125 L 4.359375 -3.59375 C 4.421875 -3.875 4.421875 -3.890625 4.421875 -3.9375 C 4.421875 -4.109375 4.3125 -4.203125 4.140625 -4.203125 C 3.890625 -4.203125 3.75 -3.984375 3.71875 -3.765625 Z M 3.078125 -1.1875 C 3.015625 -1 3.015625 -0.984375 2.875 -0.8125 C 2.4375 -0.265625 2.03125 -0.109375 1.75 -0.109375 C 1.25 -0.109375 1.109375 -0.65625 1.109375 -1.046875 C 1.109375 -1.546875 1.421875 -2.765625 1.65625 -3.234375 C 1.96875 -3.8125 2.40625 -4.1875 2.8125 -4.1875 C 3.453125 -4.1875 3.59375 -3.375 3.59375 -3.3125 C 3.59375 -3.25 3.578125 -3.1875 3.5625 -3.140625 Z M 3.078125 -1.1875 "
           style="stroke:none;stroke-width:0;fill:#ffffff" />
      </g>
      <g
         id="g1908"
         style="fill-opacity:1;fill:#ffffff">
        <path
           id="path1906"
           transform="translate(163.803,134.765)"
           d="M 2.875 -2.5 C 2.875 -3.265625 2.765625 -4.46875 2.21875 -5.609375 C 1.625 -6.828125 0.765625 -7.484375 0.671875 -7.484375 C 0.609375 -7.484375 0.5625 -7.4375 0.5625 -7.375 C 0.5625 -7.34375 0.5625 -7.328125 0.75 -7.140625 C 1.734375 -6.15625 2.296875 -4.578125 2.296875 -2.5 C 2.296875 -0.78125 1.9375 0.96875 0.703125 2.21875 C 0.5625 2.34375 0.5625 2.359375 0.5625 2.390625 C 0.5625 2.453125 0.609375 2.5 0.671875 2.5 C 0.765625 2.5 1.671875 1.8125 2.25 0.546875 C 2.765625 -0.546875 2.875 -1.65625 2.875 -2.5 Z M 2.875 -2.5 "
           style="stroke:none;stroke-width:0;fill:#ffffff" />
      </g>
    </g>
  </g>
  <g
     id="g2020"
     style="fill:#ffffff"
     ns0:jacobian_sqrt="2.0"
     inkscapeversion="0.92.3"
     ns0:alignment="middle center"
     ns0:scale="1.5"
     ns0:preamble="/home/andrew/.config/inkscape/extensions/textext/default_packages.tex"
     ns0:text="$g$"
     ns0:pdfconverter="pdf2svg"
     ns0:texconverter="pdflatex"
     ns0:version="0.11.1"
     transform="matrix(2.000000,0.000000,0.000000,2.000000,27.796826,-154.647706)">
    <g
       style="fill:#ffffff"
       id="g2018">
      <g
         id="g2016"
         style="fill-opacity:1;fill:#ffffff">
        <path
           id="path2014"
           transform="translate(148.712,134.765)"
           d="M 4.6875 -3.765625 C 4.703125 -3.8125 4.71875 -3.875 4.71875 -3.9375 C 4.71875 -4.109375 4.609375 -4.203125 4.4375 -4.203125 C 4.34375 -4.203125 4.0625 -4.140625 4.03125 -3.78125 C 3.84375 -4.140625 3.5 -4.40625 3.09375 -4.40625 C 1.96875 -4.40625 0.734375 -3.015625 0.734375 -1.578125 C 0.734375 -0.59375 1.328125 0 2.046875 0 C 2.640625 0 3.109375 -0.46875 3.203125 -0.578125 L 3.21875 -0.5625 C 3.015625 0.3125 2.890625 0.734375 2.890625 0.75 C 2.84375 0.84375 2.515625 1.828125 1.453125 1.828125 C 1.265625 1.828125 0.9375 1.8125 0.65625 1.71875 C 0.953125 1.640625 1.0625 1.375 1.0625 1.203125 C 1.0625 1.046875 0.953125 0.859375 0.6875 0.859375 C 0.46875 0.859375 0.15625 1.03125 0.15625 1.4375 C 0.15625 1.84375 0.515625 2.046875 1.46875 2.046875 C 2.71875 2.046875 3.4375 1.265625 3.59375 0.671875 Z M 3.40625 -1.28125 C 3.34375 -1.015625 3.109375 -0.765625 2.890625 -0.578125 C 2.6875 -0.40625 2.375 -0.21875 2.078125 -0.21875 C 1.578125 -0.21875 1.4375 -0.734375 1.4375 -1.140625 C 1.4375 -1.609375 1.71875 -2.796875 2 -3.296875 C 2.265625 -3.78125 2.6875 -4.1875 3.109375 -4.1875 C 3.765625 -4.1875 3.90625 -3.375 3.90625 -3.328125 C 3.90625 -3.28125 3.890625 -3.21875 3.875 -3.1875 Z M 3.40625 -1.28125 "
           style="stroke:none;stroke-width:0;fill:#ffffff" />
      </g>
    </g>
  </g>
  <g
     id="g2133"
     style="fill:#ffffff"
     ns0:jacobian_sqrt="2.0"
     inkscapeversion="0.92.3"
     ns0:alignment="middle center"
     ns0:scale="1.5"
     ns0:preamble="/home/andrew/.config/inkscape/extensions/textext/default_packages.tex"
     ns0:text="$g(f(a))$"
     ns0:pdfconverter="pdf2svg"
     ns0:texconverter="pdflatex"
     ns0:version="0.11.1"
     transform="matrix(2,0,0,2,103.33708,-140.62166)">
    <g
       style="fill:#ffffff"
       id="g2131">
      <g
         id="g2107"
         style="fill:#ffffff;fill-opacity:1">
        <path
           id="path2105"
           transform="translate(148.712,134.765)"
           d="M 4.6875,-3.765625 C 4.703125,-3.8125 4.71875,-3.875 4.71875,-3.9375 c 0,-0.171875 -0.109375,-0.265625 -0.28125,-0.265625 -0.09375,0 -0.375,0.0625 -0.40625,0.421875 -0.1875,-0.359375 -0.53125,-0.625 -0.9375,-0.625 -1.125,0 -2.359375,1.390625 -2.359375,2.828125 0,0.984375 0.59375,1.578125 1.3125,1.578125 0.59375,0 1.0625,-0.46875 1.15625,-0.578125 L 3.21875,-0.5625 C 3.015625,0.3125 2.890625,0.734375 2.890625,0.75 2.84375,0.84375 2.515625,1.828125 1.453125,1.828125 1.265625,1.828125 0.9375,1.8125 0.65625,1.71875 0.953125,1.640625 1.0625,1.375 1.0625,1.203125 c 0,-0.15625 -0.109375,-0.34375 -0.375,-0.34375 -0.21875,0 -0.53125,0.171875 -0.53125,0.578125 0,0.40625 0.359375,0.609375 1.3125,0.609375 1.25,0 1.96875,-0.78125 2.125,-1.375 z M 3.40625,-1.28125 C 3.34375,-1.015625 3.109375,-0.765625 2.890625,-0.578125 2.6875,-0.40625 2.375,-0.21875 2.078125,-0.21875 c -0.5,0 -0.640625,-0.515625 -0.640625,-0.921875 0,-0.46875 0.28125,-1.65625 0.5625,-2.15625 C 2.265625,-3.78125 2.6875,-4.1875 3.109375,-4.1875 c 0.65625,0 0.796875,0.8125 0.796875,0.859375 0,0.046875 -0.015625,0.109375 -0.03125,0.140625 z m 0,0"
           style="fill:#ffffff;stroke:none;stroke-width:0"
           inkscape:connector-curvature="0" />
      </g>
      <g
         id="g2111"
         style="fill:#ffffff;fill-opacity:1">
        <path
           id="path2109"
           transform="translate(153.822,134.765)"
           d="m 3.296875,2.390625 c 0,-0.03125 0,-0.046875 -0.171875,-0.21875 C 1.890625,0.921875 1.5625,-0.96875 1.5625,-2.5 c 0,-1.734375 0.375,-3.46875 1.609375,-4.703125 0.125,-0.125 0.125,-0.140625 0.125,-0.171875 0,-0.078125 -0.03125,-0.109375 -0.09375,-0.109375 -0.109375,0 -1,0.6875 -1.59375,1.953125 -0.5,1.09375 -0.625,2.203125 -0.625,3.03125 0,0.78125 0.109375,1.984375 0.65625,3.125 C 2.25,1.84375 3.09375,2.5 3.203125,2.5 c 0.0625,0 0.09375,-0.03125 0.09375,-0.109375 z m 0,0"
           style="fill:#ffffff;stroke:none;stroke-width:0"
           inkscape:connector-curvature="0" />
      </g>
      <g
         id="g2115"
         style="fill:#ffffff;fill-opacity:1">
        <path
           id="path2113"
           transform="translate(157.696,134.765)"
           d="m 3.65625,-3.984375 h 0.859375 c 0.203125,0 0.296875,0 0.296875,-0.203125 0,-0.109375 -0.09375,-0.109375 -0.265625,-0.109375 H 3.71875 L 3.921875,-5.4375 c 0.046875,-0.203125 0.1875,-0.90625 0.25,-1.03125 0.078125,-0.1875 0.25,-0.34375 0.46875,-0.34375 0.03125,0 0.296875,0 0.484375,0.1875 -0.4375,0.03125 -0.546875,0.390625 -0.546875,0.53125 0,0.234375 0.1875,0.359375 0.375,0.359375 C 5.21875,-5.734375 5.5,-5.96875 5.5,-6.34375 c 0,-0.453125 -0.453125,-0.6875 -0.859375,-0.6875 -0.34375,0 -0.96875,0.1875 -1.265625,1.171875 -0.0625,0.203125 -0.09375,0.3125 -0.328125,1.5625 h -0.6875 c -0.203125,0 -0.3125,0 -0.3125,0.1875 0,0.125 0.09375,0.125 0.28125,0.125 h 0.65625 L 2.25,-0.046875 c -0.1875,0.96875 -0.359375,1.875 -0.875,1.875 -0.046875,0 -0.28125,0 -0.484375,-0.1875 C 1.359375,1.609375 1.453125,1.25 1.453125,1.109375 1.453125,0.875 1.265625,0.75 1.078125,0.75 0.8125,0.75 0.53125,0.984375 0.53125,1.359375 c 0,0.4375 0.4375,0.6875 0.84375,0.6875 0.546875,0 0.953125,-0.59375 1.125,-0.96875 0.328125,-0.625 0.546875,-1.828125 0.5625,-1.90625 z m 0,0"
           style="fill:#ffffff;stroke:none;stroke-width:0"
           inkscape:connector-curvature="0" />
      </g>
      <g
         id="g2119"
         style="fill:#ffffff;fill-opacity:1">
        <path
           id="path2117"
           transform="translate(163.646,134.765)"
           d="m 3.296875,2.390625 c 0,-0.03125 0,-0.046875 -0.171875,-0.21875 C 1.890625,0.921875 1.5625,-0.96875 1.5625,-2.5 c 0,-1.734375 0.375,-3.46875 1.609375,-4.703125 0.125,-0.125 0.125,-0.140625 0.125,-0.171875 0,-0.078125 -0.03125,-0.109375 -0.09375,-0.109375 -0.109375,0 -1,0.6875 -1.59375,1.953125 -0.5,1.09375 -0.625,2.203125 -0.625,3.03125 0,0.78125 0.109375,1.984375 0.65625,3.125 C 2.25,1.84375 3.09375,2.5 3.203125,2.5 c 0.0625,0 0.09375,-0.03125 0.09375,-0.109375 z m 0,0"
           style="fill:#ffffff;stroke:none;stroke-width:0"
           inkscape:connector-curvature="0" />
      </g>
      <g
         id="g2123"
         style="fill:#ffffff;fill-opacity:1">
        <path
           id="path2121"
           transform="translate(167.52,134.765)"
           d="M 3.71875,-3.765625 C 3.53125,-4.140625 3.25,-4.40625 2.796875,-4.40625 c -1.15625,0 -2.390625,1.46875 -2.390625,2.921875 0,0.9375 0.546875,1.59375 1.3125,1.59375 0.203125,0 0.703125,-0.046875 1.296875,-0.75 0.078125,0.421875 0.4375,0.75 0.90625,0.75 0.359375,0 0.578125,-0.234375 0.75,-0.546875 0.15625,-0.359375 0.296875,-0.96875 0.296875,-0.984375 0,-0.109375 -0.09375,-0.109375 -0.125,-0.109375 -0.09375,0 -0.109375,0.046875 -0.140625,0.1875 -0.171875,0.640625 -0.34375,1.234375 -0.75,1.234375 -0.28125,0 -0.296875,-0.265625 -0.296875,-0.453125 0,-0.21875 0.015625,-0.3125 0.125,-0.75 C 3.890625,-1.71875 3.90625,-1.828125 4,-2.203125 L 4.359375,-3.59375 c 0.0625,-0.28125 0.0625,-0.296875 0.0625,-0.34375 0,-0.171875 -0.109375,-0.265625 -0.28125,-0.265625 -0.25,0 -0.390625,0.21875 -0.421875,0.4375 z M 3.078125,-1.1875 C 3.015625,-1 3.015625,-0.984375 2.875,-0.8125 2.4375,-0.265625 2.03125,-0.109375 1.75,-0.109375 c -0.5,0 -0.640625,-0.546875 -0.640625,-0.9375 0,-0.5 0.3125,-1.71875 0.546875,-2.1875 0.3125,-0.578125 0.75,-0.953125 1.15625,-0.953125 0.640625,0 0.78125,0.8125 0.78125,0.875 0,0.0625 -0.015625,0.125 -0.03125,0.171875 z m 0,0"
           style="fill:#ffffff;stroke:none;stroke-width:0"
           inkscape:connector-curvature="0" />
      </g>
      <g
         id="g2129"
         style="fill:#ffffff;fill-opacity:1">
        <path
           id="path2125"
           transform="translate(172.786,134.765)"
           d="m 2.875,-2.5 c 0,-0.765625 -0.109375,-1.96875 -0.65625,-3.109375 -0.59375,-1.21875 -1.453125,-1.875 -1.546875,-1.875 -0.0625,0 -0.109375,0.046875 -0.109375,0.109375 0,0.03125 0,0.046875 0.1875,0.234375 0.984375,0.984375 1.546875,2.5625 1.546875,4.640625 0,1.71875 -0.359375,3.46875 -1.59375,4.71875 C 0.5625,2.34375 0.5625,2.359375 0.5625,2.390625 0.5625,2.453125 0.609375,2.5 0.671875,2.5 0.765625,2.5 1.671875,1.8125 2.25,0.546875 2.765625,-0.546875 2.875,-1.65625 2.875,-2.5 Z m 0,0"
           style="fill:#ffffff;stroke:none;stroke-width:0"
           inkscape:connector-curvature="0" />
        <path
           id="path2127"
           transform="translate(176.66046,134.765)"
           d="m 2.875,-2.5 c 0,-0.765625 -0.109375,-1.96875 -0.65625,-3.109375 -0.59375,-1.21875 -1.453125,-1.875 -1.546875,-1.875 -0.0625,0 -0.109375,0.046875 -0.109375,0.109375 0,0.03125 0,0.046875 0.1875,0.234375 0.984375,0.984375 1.546875,2.5625 1.546875,4.640625 0,1.71875 -0.359375,3.46875 -1.59375,4.71875 C 0.5625,2.34375 0.5625,2.359375 0.5625,2.390625 0.5625,2.453125 0.609375,2.5 0.671875,2.5 0.765625,2.5 1.671875,1.8125 2.25,0.546875 2.765625,-0.546875 2.875,-1.65625 2.875,-2.5 Z m 0,0"
           style="fill:#ffffff;stroke:none;stroke-width:0"
           inkscape:connector-curvature="0" />
      </g>
    </g>
  </g>
  <g
     id="g2246"
     style="fill:#ffffff"
     ns0:jacobian_sqrt="2.666666"
     inkscapeversion="0.92.3"
     ns0:alignment="middle center"
     ns0:scale="2.0"
     ns0:preamble="/home/andrew/.config/inkscape/extensions/textext/default_packages.tex"
     ns0:text="$A$"
     ns0:pdfconverter="pdf2svg"
     ns0:texconverter="pdflatex"
     ns0:version="0.11.1"
     transform="matrix(2.666666,0.000000,0.000000,2.666666,-348.417318,-330.647207)">
    <g
       style="fill:#ffffff"
       id="g2244">
      <g
         id="g2242"
         style="fill-opacity:1;fill:#ffffff">
        <path
           id="path2240"
           transform="translate(148.712,134.765)"
           d="M 1.78125 -1.140625 C 1.390625 -0.484375 1 -0.34375 0.5625 -0.3125 C 0.4375 -0.296875 0.34375 -0.296875 0.34375 -0.109375 C 0.34375 -0.046875 0.40625 0 0.484375 0 C 0.75 0 1.0625 -0.03125 1.328125 -0.03125 C 1.671875 -0.03125 2.015625 0 2.328125 0 C 2.390625 0 2.515625 0 2.515625 -0.1875 C 2.515625 -0.296875 2.4375 -0.3125 2.359375 -0.3125 C 2.140625 -0.328125 1.890625 -0.40625 1.890625 -0.65625 C 1.890625 -0.78125 1.953125 -0.890625 2.03125 -1.03125 L 2.796875 -2.296875 L 5.296875 -2.296875 C 5.3125 -2.09375 5.453125 -0.734375 5.453125 -0.640625 C 5.453125 -0.34375 4.9375 -0.3125 4.734375 -0.3125 C 4.59375 -0.3125 4.5 -0.3125 4.5 -0.109375 C 4.5 0 4.609375 0 4.640625 0 C 5.046875 0 5.46875 -0.03125 5.875 -0.03125 C 6.125 -0.03125 6.765625 0 7.015625 0 C 7.0625 0 7.1875 0 7.1875 -0.203125 C 7.1875 -0.3125 7.09375 -0.3125 6.953125 -0.3125 C 6.34375 -0.3125 6.34375 -0.375 6.3125 -0.671875 L 5.703125 -6.890625 C 5.6875 -7.09375 5.6875 -7.140625 5.515625 -7.140625 C 5.359375 -7.140625 5.3125 -7.0625 5.25 -6.96875 Z M 2.984375 -2.609375 L 4.9375 -5.90625 L 5.265625 -2.609375 Z M 2.984375 -2.609375 "
           style="stroke:none;stroke-width:0;fill:#ffffff" />
      </g>
    </g>
  </g>
  <g
     id="g2348"
     style="fill:#ffffff"
     ns0:jacobian_sqrt="2.666666"
     inkscapeversion="0.92.3"
     ns0:alignment="middle center"
     ns0:scale="2.0"
     ns0:preamble="/home/andrew/.config/inkscape/extensions/textext/default_packages.tex"
     ns0:text="$B$"
     ns0:pdfconverter="pdf2svg"
     ns0:texconverter="pdflatex"
     ns0:version="0.11.1"
     transform="matrix(2.666666,0.000000,0.000000,2.666666,-210.979813,-331.084713)">
    <g
       style="fill:#ffffff"
       id="g2346">
      <g
         id="g2344"
         style="fill-opacity:1;fill:#ffffff">
        <path
           id="path2342"
           transform="translate(148.712,134.765)"
           d="M 1.59375 -0.78125 C 1.5 -0.390625 1.46875 -0.3125 0.6875 -0.3125 C 0.515625 -0.3125 0.421875 -0.3125 0.421875 -0.109375 C 0.421875 0 0.515625 0 0.6875 0 L 4.25 0 C 5.828125 0 7 -1.171875 7 -2.15625 C 7 -2.875 6.421875 -3.453125 5.453125 -3.5625 C 6.484375 -3.75 7.53125 -4.484375 7.53125 -5.4375 C 7.53125 -6.171875 6.875 -6.8125 5.6875 -6.8125 L 2.328125 -6.8125 C 2.140625 -6.8125 2.046875 -6.8125 2.046875 -6.609375 C 2.046875 -6.5 2.140625 -6.5 2.328125 -6.5 C 2.34375 -6.5 2.53125 -6.5 2.703125 -6.484375 C 2.875 -6.453125 2.96875 -6.453125 2.96875 -6.3125 C 2.96875 -6.28125 2.953125 -6.25 2.9375 -6.125 Z M 3.09375 -3.65625 L 3.71875 -6.125 C 3.8125 -6.46875 3.828125 -6.5 4.25 -6.5 L 5.546875 -6.5 C 6.421875 -6.5 6.625 -5.90625 6.625 -5.46875 C 6.625 -4.59375 5.765625 -3.65625 4.5625 -3.65625 Z M 2.65625 -0.3125 C 2.515625 -0.3125 2.5 -0.3125 2.4375 -0.3125 C 2.328125 -0.328125 2.296875 -0.34375 2.296875 -0.421875 C 2.296875 -0.453125 2.296875 -0.46875 2.359375 -0.640625 L 3.046875 -3.421875 L 4.921875 -3.421875 C 5.875 -3.421875 6.078125 -2.6875 6.078125 -2.265625 C 6.078125 -1.28125 5.1875 -0.3125 4 -0.3125 Z M 2.65625 -0.3125 "
           style="stroke:none;stroke-width:0;fill:#ffffff" />
      </g>
    </g>
  </g>
  <g
     id="g2450"
     style="fill:#ffffff"
     ns0:jacobian_sqrt="2.666666"
     inkscapeversion="0.92.3"
     ns0:alignment="middle center"
     ns0:scale="2.0"
     ns0:preamble="/home/andrew/.config/inkscape/extensions/textext/default_packages.tex"
     ns0:text="$C$"
     ns0:pdfconverter="pdf2svg"
     ns0:texconverter="pdflatex"
     ns0:version="0.11.1"
     transform="matrix(2.666666,0.000000,0.000000,2.666666,-19.146487,-331.084752)">
    <g
       style="fill:#ffffff"
       id="g2448">
      <g
         id="g2446"
         style="fill-opacity:1;fill:#ffffff">
        <path
           id="path2444"
           transform="translate(148.712,134.765)"
           d="M 7.578125 -6.921875 C 7.578125 -6.953125 7.5625 -7.03125 7.46875 -7.03125 C 7.4375 -7.03125 7.421875 -7.015625 7.3125 -6.90625 L 6.625 -6.140625 C 6.53125 -6.28125 6.078125 -7.03125 4.96875 -7.03125 C 2.734375 -7.03125 0.5 -4.828125 0.5 -2.515625 C 0.5 -0.875 1.671875 0.21875 3.203125 0.21875 C 4.0625 0.21875 4.828125 -0.171875 5.359375 -0.640625 C 6.28125 -1.453125 6.453125 -2.359375 6.453125 -2.390625 C 6.453125 -2.5 6.34375 -2.5 6.328125 -2.5 C 6.265625 -2.5 6.21875 -2.46875 6.203125 -2.390625 C 6.109375 -2.109375 5.875 -1.390625 5.1875 -0.8125 C 4.5 -0.265625 3.875 -0.09375 3.359375 -0.09375 C 2.46875 -0.09375 1.40625 -0.609375 1.40625 -2.15625 C 1.40625 -2.734375 1.609375 -4.34375 2.609375 -5.515625 C 3.21875 -6.21875 4.15625 -6.71875 5.046875 -6.71875 C 6.0625 -6.71875 6.65625 -5.953125 6.65625 -4.796875 C 6.65625 -4.390625 6.625 -4.390625 6.625 -4.28125 C 6.625 -4.1875 6.734375 -4.1875 6.765625 -4.1875 C 6.890625 -4.1875 6.890625 -4.203125 6.953125 -4.390625 Z M 7.578125 -6.921875 "
           style="stroke:none;stroke-width:0;fill:#ffffff" />
      </g>
    </g>
  </g>
</svg>
